<svg xmlns="http://www.w3.org/2000/svg" viewBox="0 0 24 24"><path fill="#dadde2" d="M20.07,17.05l-.67-2A3,3,0,0,0,16.56,13H7.44A3,3,0,0,0,4.6,15.05l-.67,2A3,3,0,0,0,6.77,21H17.23a3,3,0,0,0,2.84-3.95Z"/><path fill="#55abff" d="M17.28,4.41A6.28,6.28,0,0,0,12,2,6.28,6.28,0,0,0,6.72,4.41a5.41,5.41,0,0,0-.67,4.91c1.06,3.18,5.07,7.22,5.24,7.39A1,1,0,0,0,12,17a1,1,0,0,0,.69-.28c.17-.16,4.12-4,5.26-7.4A5.41,5.41,0,0,0,17.28,4.41Z"/><path fill="#0078ee" d="M12,10a2,2,0,1,1,2-2A2,2,0,0,1,12,10Zm0-2Z"/></svg>